<svg width="83" height="66" viewBox="0 0 83 66" fill="none" xmlns="http://www.w3.org/2000/svg">
<path d="M77.724 0V13.872H69.768C63.512 13.872 60.384 17 60.384 23.256V29.784H63.852C69.292 29.784 73.78 31.416 77.316 34.68C80.988 37.944 82.824 42.092 82.824 47.124C82.824 52.564 80.988 56.984 77.316 60.384C73.78 63.784 69.292 65.484 63.852 65.484C58.276 65.484 53.72 63.784 50.184 60.384C46.648 56.848 44.88 52.156 44.88 46.308V22.848C44.88 7.616 52.496 0 67.728 0H77.724ZM32.844 0V13.872H24.888C18.632 13.872 15.504 17 15.504 23.256V29.784H18.972C24.412 29.784 28.9 31.416 32.436 34.68C36.108 37.944 37.944 42.092 37.944 47.124C37.944 52.564 36.108 56.984 32.436 60.384C28.9 63.784 24.412 65.484 18.972 65.484C13.396 65.484 8.84 63.784 5.304 60.384C1.768 56.848 0 52.156 0 46.308V22.848C0 7.616 7.616 0 22.848 0H32.844Z" fill="#1C1C1C" fill-opacity="0.05"/>
</svg>
