<svg width="35" height="35" viewBox="0 0 35 35" fill="none" xmlns="http://www.w3.org/2000/svg">
<path fill-rule="evenodd" clip-rule="evenodd" d="M17.5207 34.6345C26.877 34.6345 34.4618 27.0497 34.4618 17.6933C34.4618 8.33702 26.877 0.752197 17.5207 0.752197C8.16428 0.752197 0.579468 8.33702 0.579468 17.6933C0.579468 27.0497 8.16428 34.6345 17.5207 34.6345ZM22.8057 8.64411C23.063 7.73031 22.1762 7.18995 21.3663 7.76694L10.0607 15.821C9.18238 16.4467 9.32054 17.6933 10.2682 17.6933L13.2453 17.6933L13.2453 17.6703L19.0475 17.6703L14.3198 19.3384L12.2356 26.7426C11.9784 27.6565 12.8651 28.1968 13.675 27.6198L24.9806 19.5658C25.8589 18.94 25.7207 17.6933 24.7731 17.6933L20.2584 17.6933L22.8057 8.64411Z" fill="#F15757"/>
</svg>
