<svg width="49" height="48" viewBox="0 0 49 48" fill="none" xmlns="http://www.w3.org/2000/svg">
<rect x="0.485474" width="48" height="48" rx="24" fill="#F88E12"/>
<path fill-rule="evenodd" clip-rule="evenodd" d="M15.4855 22C14.9332 22 14.4855 22.4477 14.4855 23V29C14.4855 30.6569 15.8286 32 17.4855 32H31.4855C33.1423 32 34.4855 30.6569 34.4855 29V23C34.4855 22.4477 34.0378 22 33.4855 22H15.4855ZM17.4855 26C16.9332 26 16.4855 26.4477 16.4855 27C16.4855 27.5523 16.9332 28 17.4855 28H23.4855C24.0378 28 24.4855 27.5523 24.4855 27C24.4855 26.4477 24.0378 26 23.4855 26H17.4855Z" fill="white"/>
<path d="M14.4855 19C14.4855 17.3431 15.8286 16 17.4855 16H31.4855C33.1423 16 34.4855 17.3431 34.4855 19C34.4855 19.5523 34.0378 20 33.4855 20H15.4855C14.9332 20 14.4855 19.5523 14.4855 19Z" fill="white"/>
</svg>
