<svg width="49" height="48" viewBox="0 0 49 48" fill="none" xmlns="http://www.w3.org/2000/svg">
<rect x="0.485474" width="48" height="48" rx="24" fill="#F88E12"/>
<path fill-rule="evenodd" clip-rule="evenodd" d="M19.4855 17C19.4855 15.3431 20.8286 14 22.4855 14H27.7428C28.5385 14 29.3015 14.3161 29.8642 14.8787L32.6068 17.6213C33.1694 18.1839 33.4855 18.947 33.4855 19.7426V27C33.4855 28.6569 32.1423 30 30.4855 30H29.4855V31C29.4855 32.6569 28.1423 34 26.4855 34H18.4855C16.8286 34 15.4855 32.6569 15.4855 31V21C15.4855 19.3431 16.8286 18 18.4855 18H19.4855V17ZM19.4855 27V20H18.4855C17.9332 20 17.4855 20.4477 17.4855 21V31C17.4855 31.5523 17.9332 32 18.4855 32H26.4855C27.0378 32 27.4855 31.5523 27.4855 31V30H22.4855C20.8286 30 19.4855 28.6569 19.4855 27ZM27.4855 16.2071V18C27.4855 19.1046 28.3809 20 29.4855 20H31.2784C31.7238 20 31.9469 19.4614 31.6319 19.1465L28.339 15.8536C28.024 15.5386 27.4855 15.7617 27.4855 16.2071Z" fill="white"/>
</svg>
